<?xml version="1.0" encoding="UTF-8"?>
<svg width="150px" height="18px" viewBox="0 0 150 18" version="1.1" xmlns="http://www.w3.org/2000/svg" xmlns:xlink="http://www.w3.org/1999/xlink">
    <title>Shape</title>
    <g id="02_Cluster" stroke="none" stroke-width="1" fill="none" fill-rule="evenodd">
        <g id="Cluster_detail_send_1428" transform="translate(-173.000000, -24.000000)" fill="#EBEBEB" fill-rule="nonzero">
            <path d="M179.411803,24 C183.771669,24.0184623 186.559721,26.1365012 188.884713,28.908813 L189.290424,29.4045421 L189.290424,29.4045421 C190.402076,30.7953493 191.407902,32.3270195 192.560615,33.6614815 C193.666016,34.9417063 194.917933,36.0441005 196.805278,36.2693602 L197.095455,36.2964832 C197.226021,36.3005079 197.352837,36.2821094 197.442861,36.2079407 C197.482538,36.1751685 197.513507,36.1182483 197.534499,36.051554 C197.5512,35.9979685 197.562134,35.9374836 197.56935,35.8812488 L197.583922,35.6876098 L197.584268,30.5061488 L203.290852,30.5061488 L203.290852,36.1958667 L198.913278,36.1958667 C198.682078,36.1964417 198.394362,36.2016163 198.144304,36.2746351 C197.88052,36.3511036 197.658547,36.5011659 197.574233,36.7886415 C197.513195,36.9970039 197.493643,37.1196295 197.481502,37.2995846 L197.472765,37.4722867 L197.469704,38.898131 L197.469704,38.898131 L197.468928,42 C193.109062,41.9815377 190.321009,39.8634988 187.996018,37.091187 L187.590306,36.5954579 L187.590306,36.5954579 C186.478655,35.2046507 185.472828,33.6729805 184.320116,32.3379436 C183.263312,31.1145683 182.072399,30.0532241 180.32033,29.7654796 L180.022242,29.72479 L179.810881,29.7052416 C179.670454,29.6983422 179.531123,29.713291 179.434583,29.7926342 C179.384583,29.8340307 179.349923,29.9030249 179.329046,29.9817932 C179.301537,30.0864343 179.296462,30.208899 179.296462,30.291117 L179.296462,35.4921264 L173.589878,35.4921264 L173.589878,29.8029834 L178.078294,29.8029834 C178.486772,29.7966589 178.916819,29.7495129 179.15667,29.4792858 C179.257535,29.3660204 179.320107,29.2044591 179.357132,29.0244993 C179.396881,28.8308845 179.407759,28.6159246 179.410713,28.4220671 L179.411803,24 Z M310.446,29.996 C312.112,29.996 313.183944,30.6542778 314.025759,31.5007623 L314.172,31.652 L313.254,32.624 C312.516,31.85 311.688,31.22 310.428,31.22 C308.601,31.22 307.1945,32.71698 307.102763,34.6215647 L307.098,34.856 C307.098,36.872 308.574,38.474 310.518,38.474 C311.6268,38.474 312.5004,37.95656 313.211973,37.2436427 L313.362,37.088 L314.244,37.916 C313.308,38.96 312.192,39.716 310.446,39.716 C307.801459,39.716 305.787405,37.6200584 305.680469,35.1027179 L305.676,34.856 C305.676,32.228 307.728,29.996 310.446,29.996 Z M298.908,29.996 C301.622595,29.996 303.638542,32.0749014 303.745529,34.6079004 L303.75,34.856 C303.75,37.484 301.68,39.716 298.872,39.716 C296.157405,39.716 294.158498,37.6370986 294.052432,35.1040996 L294.048,34.856 C294.048,32.228 296.1,29.996 298.908,29.996 Z M319.374,30.032 C320.420769,30.032 321.574899,30.3694201 322.496611,30.916843 L322.722,31.058 L322.092,32.102 C321.228,31.544 320.238,31.202 319.338,31.202 C318.301,31.202 317.617222,31.7157778 317.544448,32.4248981 L317.538,32.552 L317.538,32.588 C317.538,33.26 318.206735,33.6185306 319.074498,33.9183479 L319.408321,34.0285248 L319.408321,34.0285248 L320.265471,34.2923796 L320.265471,34.2923796 L320.598254,34.4019363 L320.598254,34.4019363 L320.925826,34.5213737 C321.950114,34.9180906 322.827997,35.5040983 322.913224,36.6657425 L322.92,36.89 C322.92,38.654 321.462,39.68 319.608,39.68 C318.3648,39.68 316.99616,39.22528 315.970389,38.4768213 L315.756,38.312 L316.458,37.322 C317.466,38.078 318.582,38.51 319.68,38.51 C320.737263,38.51 321.519889,37.993036 321.599342,37.173376 L321.606,36.998 C321.606,36.2024 320.812695,35.82296 319.823014,35.5169983 L319.466533,35.4115048 L319.466533,35.4115048 L318.958058,35.2660649 L318.631128,35.1664454 L318.631128,35.1664454 L318.307556,35.0584198 C317.239407,34.6813004 316.299654,34.1187215 316.212576,32.9170937 L316.206,32.696 C316.206,31.094 317.538,30.032 319.374,30.032 Z M228.724749,29.417191 C232.123792,29.417191 234.341399,31.5142579 234.22406,34.7741113 L234.212071,35.0034178 L225.536739,35.0034178 C225.729934,36.6023573 226.947352,37.6424442 228.744357,37.6424442 C230.212641,37.6604689 231.245288,37.018461 231.725609,35.9959226 L231.796842,35.8313476 L234.212071,35.8313476 C233.652093,38.104705 231.565007,39.6070527 228.744357,39.5880793 C225.439853,39.5880793 223.179756,37.526879 223.179756,34.5026352 C223.179756,31.4588431 225.420821,29.4361644 228.724749,29.417191 Z M250.152698,29.6868432 L250.152698,34.6952439 C250.152698,36.640879 250.905871,37.6039224 252.818793,37.6039224 C254.56997,37.6039224 255.800453,36.5111659 255.886111,34.706109 L255.890886,34.5026352 L255.890886,29.6868432 L258.190198,29.6868432 L258.190198,39.3178522 L256.06505,39.3178522 L255.929525,37.9310697 L255.755937,37.9310697 C255.040826,38.9136615 253.804377,39.5880793 252.297454,39.5880793 C249.650951,39.5880793 247.933973,38.1155545 247.83802,35.2411313 L247.833778,34.9838694 L247.833778,29.6868432 L250.152698,29.6868432 Z M268.488947,29.3976427 C271.679428,29.3976427 273.484874,30.7247598 273.585437,33.1845073 L273.589878,33.4044782 L273.589878,39.3178522 L271.464154,39.3178522 L271.329205,37.9310697 L271.155041,37.9310697 C270.343621,38.9326349 269.068532,39.5880793 267.367837,39.5880793 C265.088133,39.5880793 263.542571,38.5088958 263.542571,36.6794008 C263.542571,34.7722873 265.377638,33.6356086 268.276143,33.6356086 C269.187168,33.6356086 270.083787,33.7205137 270.893366,33.854117 L271.290566,33.9248091 L271.290566,33.4044782 C271.290566,31.9596256 270.478569,31.2852078 268.488947,31.2852078 C266.710998,31.2852078 265.803255,31.904595 265.611416,33.1428635 L265.590441,33.3078864 L263.310737,33.3078864 C263.503932,30.8424953 265.319968,29.3976427 268.488947,29.3976427 Z M237.82511,26.4119207 L237.82511,31.0540774 L237.999275,31.0540774 C238.714385,30.091034 239.950835,29.417191 241.593283,29.417191 C244.491212,29.417191 246.635968,31.4973648 246.635968,34.5026352 C246.635968,37.5073306 244.413934,39.5880793 241.593283,39.5880793 C240.042082,39.5880793 238.835532,38.9865153 238.087802,38.1083867 L237.960635,37.9506181 L237.786471,37.9506181 L237.651523,39.3178522 L235.525798,39.3178522 L235.525798,26.4119207 L237.82511,26.4119207 Z M285.156,26.9 C289.029913,26.9 291.732465,29.5011106 291.848137,32.9339325 L291.852,33.2 C291.852,36.668913 289.233664,39.3798866 285.41251,39.4961156 L285.156,39.5 L280.782,39.5 L280.782,26.9 L285.156,26.9 Z M213.286833,26.4119207 L219.102644,37.1991567 L219.334536,37.1991567 L219.334536,26.4119207 L221.826813,26.4119207 L221.826813,39.3178522 L217.595548,39.3178522 L211.799056,28.5311911 L211.547902,28.5311911 L211.547902,39.3178522 L209.055395,39.3178522 L209.055395,26.4119207 L213.286833,26.4119207 Z M262.073711,26.4119207 L262.073711,39.3178522 L259.794007,39.3178522 L259.794007,26.4119207 L262.073711,26.4119207 Z M298.872,31.22 C296.9232,31.22 295.5631,32.75062 295.474592,34.6249287 L295.47,34.856 C295.47,36.854 296.946,38.474 298.908,38.474 C300.8568,38.474 302.23372,36.9602 302.323349,35.0870127 L302.328,34.856 C302.328,32.858 300.834,31.22 298.872,31.22 Z M285.156,28.214 L282.204,28.214 L282.204,38.186 L285.156,38.186 C288.260308,38.186 290.270935,36.1353491 290.372003,33.449347 L290.376,33.2 C290.376,30.4815385 288.44497,28.3270059 285.39879,28.2183044 L285.156,28.214 Z M268.373029,35.2345482 C266.846499,35.2345482 265.880522,35.6387389 265.880522,36.5057655 C265.880522,37.372792 266.710974,37.6999393 267.832083,37.6999393 C269.57084,37.6999393 271.039124,36.8524611 271.348236,35.5042003 C270.478569,35.3501134 269.512593,35.2345482 268.373029,35.2345482 Z M241.013121,31.3817996 C239.00389,31.3817996 237.76744,32.6530169 237.76744,34.5026352 C237.76744,36.3321302 239.00389,37.6228958 241.013121,37.6228958 C243.080598,37.6228958 244.278985,36.4476954 244.278985,34.5026352 C244.278985,32.557 243.080598,31.3817996 241.013121,31.3817996 Z M228.744357,31.3432779 C227.191523,31.3432779 225.975327,32.0481747 225.652455,33.2390889 L225.614017,33.4044782 L231.739171,33.4044782 C231.507337,32.1137126 230.367197,31.3432779 228.744357,31.3432779 Z M194.675785,24.2156067 L195.058773,25.9916313 C195.168573,26.5007506 195.543346,26.9074488 196.034106,27.0638109 L196.190717,27.1044248 L196.190717,27.1044248 L197.951916,27.481905 L197.951916,27.481905 L196.170713,27.8636727 L196.170713,27.8636727 C195.660096,27.9732967 195.251921,28.3467036 195.095176,28.8359785 L195.054472,28.9921243 L195.054472,28.9921243 L194.675785,30.7482033 L194.675785,30.7482033 L194.292798,28.9721787 L194.292798,28.9721787 C194.182998,28.4630594 193.808177,28.0563612 193.317409,27.8999991 L193.160796,27.8593852 L193.160796,27.8593852 L191.399598,27.481905 L191.399598,27.481905 L193.1808,27.1001373 L193.1808,27.1001373 C193.737837,26.9805475 194.173016,26.5470342 194.292798,25.9916313 L194.675785,24.2156067 Z" id="Shape"></path>
        </g>
    </g>
</svg>