<?xml version="1.0" encoding="utf-8"?>
<!-- Generator: Adobe Illustrator 24.3.0, SVG Export Plug-In . SVG Version: 6.00 Build 0)  -->
<svg version="1.1" id="Layer_1" xmlns="http://www.w3.org/2000/svg" xmlns:xlink="http://www.w3.org/1999/xlink" x="0px" y="0px"
	 viewBox="0 0 93.5 93.5" style="enable-background:new 0 0 93.5 93.5;" xml:space="preserve">
<style type="text/css">
	.st0{fill:#23BED9;}
</style>
<path class="st0" d="M65.1,23.7l1.1,5c0.3,1.6,1.6,2.8,3.1,3.1l5,1.1l-5,1.1c-1.6,0.3-2.8,1.6-3.1,3.1l-1.1,5l-1.1-5
	c-0.3-1.6-1.6-2.8-3.1-3.1l-5-1.1l5-1.1c1.6-0.3,2.8-1.6,3.1-3.1L65.1,23.7z M73.4,56.1C73.4,56.1,73.4,56.1,73.4,56.1l0-14.7h16.1
	v16.1H77.1c-0.7,0-1.5,0-2.2,0.2c-0.7,0.2-1.4,0.6-1.6,1.5c-0.2,0.7-0.2,1.1-0.3,1.9c0,0.3,0,11.4,0,12.9
	C60,73.9,51.9,67.2,45.1,58.7c-3.1-3.9-6-8.3-9.2-12c-3.2-3.7-6.7-6.8-12.2-7.4c0,0,0,0,0,0c-0.1,0-0.5,0-0.6-0.1c0,0,0,0,0,0
	c-0.4,0-0.8,0-1.1,0.2c-0.1,0.1-0.2,0.3-0.3,0.5c-0.1,0.3-0.1,0.6-0.1,0.9v14.7H5.5V39.5h12.7c0,0,0,0,0,0c1.2,0,2.4-0.2,3-0.9
	c0.3-0.3,0.5-0.8,0.6-1.3C22,36.5,22,35.7,22,35V23c13.1,0.1,21.1,6.8,27.9,15.3c3.1,3.9,6,8.3,9.2,12c3.3,3.8,7,7,12.8,7.5
	c0,0,0,0,0,0c0.4,0,0.7,0,1-0.3c0.1-0.1,0.2-0.3,0.3-0.4C73.3,56.8,73.4,56.3,73.4,56.1L73.4,56.1z"/>
</svg>
