<svg xmlns="http://www.w3.org/2000/svg" width="20" height="20" viewBox="0 0 20 20" fill="none"><path d="M3.77783 6.22222C3.77783 6 3.66672 5.77778 3.55561 5.66666L2.00005 3.88889V3.55555H6.77783L10.4445 11.5556L13.6667 3.55555H18.2223V3.77778L16.8889 5C16.7778 5.11111 16.7778 5.22222 16.7778 5.33333V14.4444C16.7778 14.5556 16.7778 14.7778 16.8889 14.7778L18.1112 16V16.2222H11.6667V16L13.0001 14.7778C13.1112 14.6667 13.1112 14.6667 13.1112 14.4444V7.11111L9.4445 16.3333H9.00006L4.77783 7.11111V13.3333C4.77783 13.5556 4.77783 13.8889 5.00005 14L6.66672 16.1111V16.3333H1.77783V16.1111L3.55561 14C3.77783 13.7778 3.77783 13.5556 3.77783 13.3333V6.22222Z" fill="white"/></svg>