<?xml version="1.0" encoding="utf-8"?>
<!-- Generator: Adobe Illustrator 25.3.1, SVG Export Plug-In . SVG Version: 6.00 Build 0)  -->
<svg version="1.1" id="Layer_1" xmlns="http://www.w3.org/2000/svg" xmlns:xlink="http://www.w3.org/1999/xlink" x="0px" y="0px"
	 viewBox="0 0 150 18" style="enable-background:new 0 0 150 18;" xml:space="preserve">
<style type="text/css">
	.st0{fill:#0C0816;}
</style>
<g id="_x30_2_x5F_Cluster">
	<g id="Cluster_detail_send_1428" transform="translate(-173.000000, -24.000000)">
		<path id="Shape" class="st0" d="M179.4,24c4.4,0,7.1,2.1,9.5,4.9l0.4,0.5l0,0c1.1,1.4,2.1,2.9,3.3,4.3c1.1,1.3,2.4,2.4,4.2,2.6
			l0.3,0c0.1,0,0.3,0,0.3-0.1c0,0,0.1-0.1,0.1-0.2c0-0.1,0-0.1,0-0.2l0-0.2l0-5.2h5.7v5.7h-4.4c-0.2,0-0.5,0-0.8,0.1
			c-0.3,0.1-0.5,0.2-0.6,0.5c-0.1,0.2-0.1,0.3-0.1,0.5l0,0.2l0,1.4l0,0l0,3.1c-4.4,0-7.1-2.1-9.5-4.9l-0.4-0.5l0,0
			c-1.1-1.4-2.1-2.9-3.3-4.3c-1.1-1.2-2.2-2.3-4-2.6l-0.3,0l-0.2,0c-0.1,0-0.3,0-0.4,0.1c-0.1,0-0.1,0.1-0.1,0.2c0,0.1,0,0.2,0,0.3
			v5.2h-5.7v-5.7h4.5c0.4,0,0.8-0.1,1.1-0.3c0.1-0.1,0.2-0.3,0.2-0.5c0-0.2,0.1-0.4,0.1-0.6L179.4,24z M310.4,30
			c1.7,0,2.7,0.7,3.6,1.5l0.1,0.2l-0.9,1c-0.7-0.8-1.6-1.4-2.8-1.4c-1.8,0-3.2,1.5-3.3,3.4l0,0.2c0,2,1.5,3.6,3.4,3.6
			c1.1,0,2-0.5,2.7-1.2l0.2-0.2l0.9,0.8c-0.9,1-2.1,1.8-3.8,1.8c-2.6,0-4.7-2.1-4.8-4.6l0-0.2C305.7,32.2,307.7,30,310.4,30z
			 M298.9,30c2.7,0,4.7,2.1,4.8,4.6l0,0.2c0,2.6-2.1,4.9-4.9,4.9c-2.7,0-4.7-2.1-4.8-4.6l0-0.2C294,32.2,296.1,30,298.9,30z
			 M319.4,30c1,0,2.2,0.3,3.1,0.9l0.2,0.1l-0.6,1c-0.9-0.6-1.9-0.9-2.8-0.9c-1,0-1.7,0.5-1.8,1.2l0,0.1v0c0,0.7,0.7,1,1.5,1.3
			l0.3,0.1l0,0l0.9,0.3l0,0l0.3,0.1l0,0l0.3,0.1c1,0.4,1.9,1,2,2.1l0,0.2c0,1.8-1.5,2.8-3.3,2.8c-1.2,0-2.6-0.5-3.6-1.2l-0.2-0.2
			l0.7-1c1,0.8,2.1,1.2,3.2,1.2c1.1,0,1.8-0.5,1.9-1.3l0-0.2c0-0.8-0.8-1.2-1.8-1.5l-0.4-0.1l0,0l-0.5-0.1l-0.3-0.1l0,0l-0.3-0.1
			c-1.1-0.4-2-0.9-2.1-2.1l0-0.2C316.2,31.1,317.5,30,319.4,30z M228.7,29.4c3.4,0,5.6,2.1,5.5,5.4l0,0.2h-8.7
			c0.2,1.6,1.4,2.6,3.2,2.6c1.5,0,2.5-0.6,3-1.6l0.1-0.2h2.4c-0.6,2.3-2.6,3.8-5.5,3.8c-3.3,0-5.6-2.1-5.6-5.1
			C223.2,31.5,225.4,29.4,228.7,29.4z M250.2,29.7v5c0,1.9,0.8,2.9,2.7,2.9c1.8,0,3-1.1,3.1-2.9l0-0.2v-4.8h2.3v9.6h-2.1l-0.1-1.4
			h-0.2c-0.7,1-2,1.7-3.5,1.7c-2.6,0-4.4-1.5-4.5-4.3l0-0.3v-5.3H250.2z M268.5,29.4c3.2,0,5,1.3,5.1,3.8l0,0.2v5.9h-2.1l-0.1-1.4
			h-0.2c-0.8,1-2.1,1.7-3.8,1.7c-2.3,0-3.8-1.1-3.8-2.9c0-1.9,1.8-3,4.7-3c0.9,0,1.8,0.1,2.6,0.2l0.4,0.1v-0.5
			c0-1.4-0.8-2.1-2.8-2.1c-1.8,0-2.7,0.6-2.9,1.9l0,0.2h-2.3C263.5,30.8,265.3,29.4,268.5,29.4z M237.8,26.4v4.6h0.2
			c0.7-1,2-1.6,3.6-1.6c2.9,0,5,2.1,5,5.1c0,3-2.2,5.1-5,5.1c-1.6,0-2.8-0.6-3.5-1.5L238,38h-0.2l-0.1,1.4h-2.1V26.4H237.8z
			 M285.2,26.9c3.9,0,6.6,2.6,6.7,6l0,0.3c0,3.5-2.6,6.2-6.4,6.3l-0.3,0h-4.4V26.9H285.2z M213.3,26.4l5.8,10.8h0.2V26.4h2.5v12.9
			h-4.2l-5.8-10.8h-0.3v10.8h-2.5V26.4H213.3z M262.1,26.4v12.9h-2.3V26.4H262.1z M298.9,31.2c-1.9,0-3.3,1.5-3.4,3.4l0,0.2
			c0,2,1.5,3.6,3.4,3.6c1.9,0,3.3-1.5,3.4-3.4l0-0.2C302.3,32.9,300.8,31.2,298.9,31.2z M285.2,28.2h-3v10h3c3.1,0,5.1-2.1,5.2-4.7
			l0-0.2c0-2.7-1.9-4.9-5-5L285.2,28.2z M268.4,35.2c-1.5,0-2.5,0.4-2.5,1.3c0,0.9,0.8,1.2,2,1.2c1.7,0,3.2-0.8,3.5-2.2
			C270.5,35.4,269.5,35.2,268.4,35.2z M241,31.4c-2,0-3.2,1.3-3.2,3.1c0,1.8,1.2,3.1,3.2,3.1c2.1,0,3.3-1.2,3.3-3.1
			C244.3,32.6,243.1,31.4,241,31.4z M228.7,31.3c-1.6,0-2.8,0.7-3.1,1.9l0,0.2h6.1C231.5,32.1,230.4,31.3,228.7,31.3z M194.7,24.2
			l0.4,1.8c0.1,0.5,0.5,0.9,1,1.1l0.2,0l0,0l1.8,0.4l0,0l-1.8,0.4l0,0c-0.5,0.1-0.9,0.5-1.1,1l0,0.2l0,0l-0.4,1.8l0,0l-0.4-1.8l0,0
			c-0.1-0.5-0.5-0.9-1-1.1l-0.2,0l0,0l-1.8-0.4l0,0l1.8-0.4l0,0c0.6-0.1,1-0.6,1.1-1.1L194.7,24.2z"/>
	</g>
</g>
</svg>
